<?xml version="1.0" encoding="UTF-8" standalone="no"?>
<!-- Created with Inkscape (http://www.inkscape.org/) -->

<svg
   width="149.83781"
   height="71.900581"
   viewBox="0 0 39.644588 19.023695"
   version="1.1"
   id="svg5"
   inkscape:version="1.2.1 (9c6d41e410, 2022-07-14)"
   sodipodi:docname="logo.svg"
   inkscape:export-filename="wgsl-analyzer.png"
   inkscape:export-xdpi="96"
   inkscape:export-ydpi="96"
   xmlns:inkscape="http://www.inkscape.org/namespaces/inkscape"
   xmlns:sodipodi="http://sodipodi.sourceforge.net/DTD/sodipodi-0.dtd"
   xmlns="http://www.w3.org/2000/svg"
   xmlns:svg="http://www.w3.org/2000/svg">
  <sodipodi:namedview
     id="namedview7"
     pagecolor="#505050"
     bordercolor="#eeeeee"
     borderopacity="1"
     inkscape:showpageshadow="0"
     inkscape:pageopacity="0"
     inkscape:pagecheckerboard="0"
     inkscape:deskcolor="#505050"
     inkscape:document-units="mm"
     showgrid="false"
     inkscape:zoom="2.108574"
     inkscape:cx="94.613704"
     inkscape:cy="56.673371"
     inkscape:window-width="3072"
     inkscape:window-height="1700"
     inkscape:window-x="0"
     inkscape:window-y="0"
     inkscape:window-maximized="1"
     inkscape:current-layer="text788" />
  <defs
     id="defs2">
    <rect
       x="18.672392"
       y="9.7220335"
       width="63.115765"
       height="24.206533"
       id="rect790" />
  </defs>
  <g
     inkscape:label="Layer 1"
     inkscape:groupmode="layer"
     id="layer1"
     transform="translate(-0.1125232,-0.08229077)">
    <rect
       style="fill:#414141;fill-opacity:1;stroke:#404040;stroke-width:2.44622;stroke-linejoin:bevel;stroke-dasharray:none;stroke-opacity:1"
       id="rect6800"
       width="37.198368"
       height="16.577477"
       x="1.3356332"
       y="1.3054007"
       inkscape:export-filename="./wgsl-analyzer.png"
       inkscape:export-xdpi="96"
       inkscape:export-ydpi="96" />
    <g
       aria-label="WGSL"
       transform="matrix(1.0537227,0,0,1.0537227,-17.837808,-10.4364)"
       id="text788"
       style="font-size:16px;letter-spacing:-0.753282px;white-space:pre;shape-inside:url(#rect790);display:inline;fill:#b80000;stroke:#ffcccc;stroke-width:0">
      <path
         d="m 19.111698,18.764833 -0.845181,-7.223352 h 1.100701 l 0.245693,5.749199 0.452073,-3.724694 h 0.864837 l 0.452074,3.724694 0.245692,-5.749199 h 1.100702 l -0.845182,7.223352 h -0.874664 l -0.51104,-3.655901 -0.51104,3.655901 z"
         style="fill:#ff00ff;stroke-width:0"
         id="path17920" />
      <path
         d="m 24.486658,18.843455 q -0.245692,0 -0.481557,-0.07862 -0.226037,-0.07862 -0.412763,-0.235864 -0.176898,-0.167071 -0.294831,-0.373453 -0.117932,-0.216209 -0.186726,-0.442246 -0.06879,-0.235864 -0.09828,-0.471729 -0.01965,-0.245692 -0.01965,-0.491385 v -3.193999 q 0,-0.265347 0.03932,-0.530695 0.03931,-0.275176 0.147415,-0.520868 0.108107,-0.245692 0.285004,-0.452074 0.186726,-0.216209 0.42259,-0.343969 0.235865,-0.137587 0.501212,-0.186726 0.265349,-0.05897 0.530696,-0.05897 0.25552,0 0.501212,0.04914 0.255521,0.03932 0.481557,0.157243 0.226037,0.108107 0.412763,0.29483 0.186726,0.176899 0.294831,0.402936 0.117933,0.226037 0.176898,0.481556 0.05897,0.245693 0.05897,0.501213 0,0 0,0 0,0 0,0.0099 h -1.090873 q 0,-0.0099 0,-0.0099 0,0 0,0 0,-0.176899 -0.04914,-0.34397 -0.04914,-0.176898 -0.157244,-0.314486 -0.108107,-0.147414 -0.285002,-0.216209 -0.167071,-0.06879 -0.343969,-0.06879 -0.127761,0 -0.265348,0.03931 -0.127761,0.03932 -0.226037,0.12776 -0.09828,0.08845 -0.167071,0.206382 -0.06879,0.117933 -0.108107,0.245692 -0.03932,0.12776 -0.05897,0.265348 -0.0099,0.12776 -0.0099,0.265347 v 3.194 q 0,0.196554 0.03931,0.402935 0.03932,0.196554 0.137588,0.373452 0.108107,0.176899 0.294831,0.275176 0.186726,0.09828 0.38328,0.09828 0.127759,0 0.25552,-0.03932 0.12776,-0.04914 0.226037,-0.137588 0.09828,-0.08845 0.157242,-0.206381 0.05897,-0.117933 0.08846,-0.245692 0.03931,-0.12776 0.04914,-0.255521 0.01965,-0.137588 0.01965,-0.265347 V 15.71825 H 24.94856 v -0.943458 h 1.877089 v 3.990041 h -1.002425 v -1.120356 q -0.05897,0.235864 -0.167071,0.461902 -0.108107,0.226036 -0.285003,0.402935 -0.167071,0.167071 -0.402935,0.255519 -0.235864,0.07862 -0.481557,0.07862 z"
         style="fill:#00ffff;stroke-width:0"
         id="path17922" />
      <path
         d="m 29.389889,18.843455 q -0.255521,0 -0.51104,-0.04914 -0.255521,-0.03931 -0.491385,-0.147415 -0.226038,-0.108107 -0.412764,-0.285003 -0.186726,-0.186726 -0.314485,-0.402936 -0.117933,-0.226036 -0.176898,-0.471728 -0.05897,-0.255521 -0.05897,-0.51104 0,-0.0099 0,-0.0099 0,0 0,-0.0099 h 1.090874 q 0,0.0099 0,0.0099 0,0 0,0 0,0.1769 0.04914,0.353797 0.05897,0.176898 0.176899,0.314486 0.117933,0.137588 0.285003,0.206383 0.176899,0.05897 0.363625,0.05897 0.186726,0 0.363624,-0.06879 0.176899,-0.07862 0.285004,-0.226038 0.117933,-0.157242 0.16707,-0.343969 0.05897,-0.186726 0.05897,-0.373452 0,-0.235864 -0.09828,-0.452073 Q 30.067996,16.219398 29.8911,16.062155 29.724029,15.895084 29.50782,15.786979 29.301439,15.678872 29.085229,15.57077 28.878848,15.462663 28.682294,15.334905 28.48574,15.207146 28.308842,15.05973 28.131943,14.902487 27.9747,14.725588 q -0.147415,-0.186726 -0.255519,-0.393107 -0.09828,-0.21621 -0.147416,-0.442246 -0.04914,-0.235865 -0.04914,-0.47173 0,-0.255519 0.04914,-0.51104 0.05897,-0.255519 0.167071,-0.481556 0.117932,-0.235865 0.285003,-0.422591 0.176898,-0.196554 0.402936,-0.314487 0.226036,-0.127759 0.471728,-0.176898 0.25552,-0.04914 0.51104,-0.04914 0.25552,0 0.501212,0.04914 0.255521,0.03931 0.47173,0.157243 0.226036,0.117933 0.402935,0.304659 0.176898,0.176898 0.285003,0.402935 0.117933,0.21621 0.167071,0.471729 0.05897,0.245693 0.05897,0.491385 0,0 0,0.0099 0,0 0,0 H 30.20559 q 0,0 0,0 0,0 0,0 0,-0.176899 -0.04914,-0.34397 -0.03931,-0.176898 -0.147415,-0.314486 -0.09828,-0.137587 -0.265347,-0.206381 -0.157244,-0.07862 -0.334142,-0.07862 -0.176898,0 -0.343969,0.08844 -0.167071,0.07862 -0.265347,0.226037 -0.09828,0.147416 -0.147416,0.334142 -0.03931,0.176898 -0.03931,0.353796 0,0.235866 0.09828,0.461902 0.09828,0.216209 0.265347,0.38328 0.176898,0.157243 0.383281,0.265348 0.206381,0.108107 0.412762,0.216209 0.216209,0.108107 0.412763,0.235864 0.206382,0.117933 0.383281,0.275176 0.176898,0.157243 0.324314,0.343969 0.147414,0.176899 0.245692,0.393108 0.108107,0.206381 0.157243,0.442246 0.05897,0.226037 0.05897,0.461901 0,0.265348 -0.05897,0.520868 -0.05897,0.25552 -0.176899,0.491384 -0.117933,0.226038 -0.304658,0.422592 -0.186726,0.186726 -0.422591,0.304657 -0.226037,0.117933 -0.491384,0.167071 -0.255521,0.04914 -0.51104,0.04914 z"
         style="fill:#ffff00;stroke-width:0"
         id="path17924" />
      <path
         d="m 32.258786,18.764833 v -7.223352 h 1.100702 v 6.279894 h 2.447095 v 0.943458 z"
         style="fill:#ffffff;stroke-width:0"
         id="path17926" />
    </g>
    <g
       aria-label="anal"
       id="text4427"
       style="font-size:16.8595px;font-family:Iosevka;-inkscape-font-specification:'Iosevka, Normal';letter-spacing:-1.05372px;fill:#ffffff;stroke:#ffcccc;stroke-width:0"
       transform="matrix(0.61423069,0,0,0.61423069,0.04340878,0.03174603)">
      <path
         d="m 8.6012745,26.053085 q -0.505785,0 -0.9947105,-0.151735 -0.4889256,-0.151736 -0.8429751,-0.522645 -0.33719,-0.370909 -0.4889255,-0.859834 -0.134876,-0.488926 -0.134876,-0.977852 0,-0.438347 0.101157,-0.859834 0.1180165,-0.421488 0.370909,-0.758678 0.269752,-0.33719 0.6406611,-0.556363 0.370909,-0.236033 0.775537,-0.370909 Q 8.449539,20.860359 8.8710265,20.80978 9.2925141,20.7592 9.7308611,20.7592 h 1.5004959 v -0.826116 q 0,-0.354049 -0.118017,-0.708099 -0.118016,-0.354049 -0.387768,-0.590082 -0.269752,-0.236033 -0.623802,-0.33719 -0.3540494,-0.101157 -0.7080989,-0.101157 -0.3371901,0 -0.6743801,0.06744 -0.3203305,0.06744 -0.5900825,0.252892 -0.269752,0.185455 -0.4214875,0.488926 -0.1517355,0.303471 -0.1517355,0.623801 0,0 0,0 0,0 0,0 0,0 0,0 0,0 0,0 0,0 0,0 0,0 0,0 H 6.2409444 q 0,0 0,0 0,0 0,0 0,-0.387768 0.101157,-0.758677 0.1180165,-0.370909 0.33719,-0.69124 0.2191735,-0.32033 0.5226446,-0.539504 0.3203305,-0.236033 0.67438,-0.370909 0.3540495,-0.151735 0.741818,-0.202314 0.3877685,-0.05058 0.7755371,-0.05058 0.404628,0 0.8092559,0.06744 0.404628,0.05058 0.775537,0.219173 0.370909,0.168595 0.67438,0.438347 0.320331,0.269752 0.522645,0.623802 0.202314,0.354049 0.286611,0.758677 0.0843,0.404628 0.0843,0.809256 v 5.985123 h -1.315041 v -1.449917 q -0.151736,0.370909 -0.438347,0.69124 -0.269752,0.303471 -0.623802,0.522644 -0.3540494,0.202314 -0.7586774,0.286612 -0.4046281,0.0843 -0.8092561,0.0843 z M 9.1070596,24.87292 q 0.404628,0 0.809256,-0.101157 0.4214874,-0.118016 0.7249584,-0.387769 0.303471,-0.286611 0.438347,-0.67438 0.151736,-0.404628 0.151736,-0.826115 V 21.939367 H 9.7308611 q -0.2528925,0 -0.5226445,0.03372 -0.2528926,0.01686 -0.5057851,0.0843 -0.236033,0.05058 -0.472066,0.168595 -0.236033,0.101157 -0.4214875,0.269752 -0.1854545,0.168595 -0.269752,0.421488 -0.084298,0.236033 -0.084298,0.488925 0,0.303471 0.1180165,0.606942 0.1180165,0.303471 0.3540495,0.505786 0.236033,0.202314 0.539504,0.286611 0.3203305,0.06744 0.6406611,0.06744 z"
         id="path17929" />
      <path
         d="m 13.650694,25.918209 v -8.76694 h 1.315041 v 1.534214 q 0.134876,-0.354049 0.354049,-0.67438 0.219174,-0.32033 0.522645,-0.556363 0.32033,-0.236033 0.691239,-0.33719 0.387769,-0.101157 0.758678,-0.101157 0.421488,0 0.826116,0.118016 0.404628,0.118017 0.708099,0.387769 0.32033,0.252892 0.539504,0.623801 0.219173,0.35405 0.33719,0.758678 0.134876,0.387768 0.168595,0.809256 0.05058,0.404628 0.05058,0.809256 v 5.39504 h -1.315041 v -5.39504 q 0,-0.286612 -0.03372,-0.556364 -0.03372,-0.286611 -0.118016,-0.539504 -0.0843,-0.269752 -0.252893,-0.505785 -0.151735,-0.236033 -0.370909,-0.404628 -0.219173,-0.168595 -0.488925,-0.236033 -0.269752,-0.0843 -0.556364,-0.0843 -0.286612,0 -0.556364,0.0843 -0.269752,0.06744 -0.488925,0.236033 -0.219174,0.168595 -0.387769,0.404628 -0.151735,0.236033 -0.236033,0.505785 -0.0843,0.252893 -0.118016,0.539504 -0.03372,0.269752 -0.03372,0.556364 v 5.39504 z"
         id="path17931" />
      <path
         d="m 23.353335,26.053085 q -0.505785,0 -0.99471,-0.151735 -0.488926,-0.151736 -0.842975,-0.522645 -0.33719,-0.370909 -0.488926,-0.859834 -0.134876,-0.488926 -0.134876,-0.977852 0,-0.438347 0.101157,-0.859834 0.118017,-0.421488 0.370909,-0.758678 0.269752,-0.33719 0.640661,-0.556363 0.370909,-0.236033 0.775537,-0.370909 0.421488,-0.134876 0.842975,-0.185455 0.421488,-0.05058 0.859835,-0.05058 h 1.500496 v -0.826116 q 0,-0.354049 -0.118017,-0.708099 -0.118016,-0.354049 -0.387768,-0.590082 -0.269752,-0.236033 -0.623802,-0.33719 -0.35405,-0.101157 -0.708099,-0.101157 -0.33719,0 -0.67438,0.06744 -0.320331,0.06744 -0.590083,0.252892 -0.269752,0.185455 -0.421487,0.488926 -0.151736,0.303471 -0.151736,0.623801 0,0 0,0 0,0 0,0 0,0 0,0 0,0 0,0 0,0 0,0 0,0 0,0 h -1.315041 q 0,0 0,0 0,0 0,0 0,-0.387768 0.101157,-0.758677 0.118017,-0.370909 0.33719,-0.69124 0.219174,-0.32033 0.522645,-0.539504 0.32033,-0.236033 0.67438,-0.370909 0.354049,-0.151735 0.741818,-0.202314 0.387768,-0.05058 0.775537,-0.05058 0.404628,0 0.809256,0.06744 0.404628,0.05058 0.775537,0.219173 0.370909,0.168595 0.67438,0.438347 0.320331,0.269752 0.522645,0.623802 0.202314,0.354049 0.286611,0.758677 0.0843,0.404628 0.0843,0.809256 v 5.985123 H 25.98342 v -1.449917 q -0.151736,0.370909 -0.438347,0.69124 -0.269752,0.303471 -0.623802,0.522644 -0.35405,0.202314 -0.758678,0.286612 -0.404628,0.0843 -0.809256,0.0843 z M 23.85912,24.87292 q 0.404628,0 0.809256,-0.101157 0.421488,-0.118016 0.724959,-0.387769 0.303471,-0.286611 0.438347,-0.67438 0.151736,-0.404628 0.151736,-0.826115 v -0.944132 h -1.500496 q -0.252893,0 -0.522645,0.03372 -0.252892,0.01686 -0.505785,0.0843 -0.236033,0.05058 -0.472066,0.168595 -0.236033,0.101157 -0.421487,0.269752 -0.185455,0.168595 -0.269752,0.421488 -0.0843,0.236033 -0.0843,0.488925 0,0.303471 0.118017,0.606942 0.118016,0.303471 0.354049,0.505786 0.236033,0.202314 0.539504,0.286611 0.320331,0.06744 0.640661,0.06744 z"
         id="path17933" />
      <path
         d="m 28.58821,25.918209 v -1.180165 h 2.410908 V 14.706641 h -2.174875 v -1.180165 h 3.489916 v 11.211568 h 2.174876 v 1.180165 z"
         id="path17935" />
    </g>
    <g
       aria-label="yzer"
       id="text4427-1"
       style="font-size:16.8595px;font-family:Iosevka;-inkscape-font-specification:'Iosevka, Normal';letter-spacing:-1.05372px;fill:#ffffff;stroke:#ffcccc;stroke-width:0"
       transform="matrix(0.61423069,0,0,0.61423069,0.04340878,0.03174603)">
      <path
         d="m 35.355721,29.531022 q 0.151736,-0.505785 0.303471,-1.02843 0.151736,-0.505785 0.303471,-1.01157 l 0.387769,-1.3319 -2.680661,-9.019833 h 1.36562 l 2.00628,6.996692 1.972562,-6.996692 h 1.365619 l -3.658511,12.391733 z"
         id="path17938" />
      <path
         d="m 41.264975,25.906229 v -1.180165 l 4.703801,-6.40661 h -4.703801 v -1.180165 h 6.271734 v 1.180165 l -4.7038,6.40661 h 4.7038 v 1.180165 z"
         id="path17940" />
      <path
         d="m 51.810592,26.041105 q -0.455207,0 -0.910413,-0.0843 -0.455207,-0.0843 -0.859835,-0.303471 -0.387768,-0.236034 -0.708099,-0.573224 -0.303471,-0.354049 -0.505785,-0.758677 -0.185455,-0.421488 -0.252893,-0.876694 -0.06744,-0.455207 -0.06744,-0.910413 v -2.02314 q 0,-0.455207 0.06744,-0.910413 0.06744,-0.455207 0.252893,-0.859835 0.185454,-0.421487 0.488926,-0.758677 0.32033,-0.35405 0.708099,-0.573223 0.387768,-0.219174 0.842975,-0.303471 0.455206,-0.101157 0.910413,-0.101157 0.455206,0 0.910413,0.101157 0.455206,0.0843 0.842975,0.303471 0.387768,0.219173 0.691239,0.573223 0.320331,0.33719 0.505785,0.758677 0.185455,0.404628 0.252893,0.859835 0.06744,0.455206 0.06744,0.910413 v 1.601652 h -5.226445 v 0.421488 q 0,0.286611 0.03372,0.573223 0.03372,0.286611 0.134876,0.556363 0.118016,0.269752 0.286611,0.505785 0.185455,0.236033 0.421488,0.404628 0.252892,0.151736 0.539504,0.219174 0.286611,0.06744 0.573223,0.06744 0.32033,0 0.640661,-0.06744 0.33719,-0.06744 0.606942,-0.236033 0.269752,-0.168595 0.438347,-0.455207 0.185454,-0.286611 0.202314,-0.623801 H 55.0139 q -0.01686,0.387768 -0.151736,0.758677 -0.118016,0.35405 -0.354049,0.67438 -0.219174,0.303471 -0.539504,0.539504 -0.303471,0.219174 -0.657521,0.35405 -0.354049,0.134876 -0.741818,0.185455 -0.387768,0.05058 -0.758677,0.05058 z m 1.921983,-5.108429 v -0.421487 q 0,-0.286612 -0.03372,-0.573223 -0.03372,-0.286612 -0.134876,-0.556364 -0.101157,-0.269752 -0.286612,-0.505785 -0.168595,-0.236033 -0.404628,-0.387768 -0.236033,-0.168595 -0.522644,-0.236033 -0.286612,-0.06744 -0.573223,-0.06744 -0.286612,0 -0.573223,0.06744 -0.286612,0.06744 -0.522645,0.236033 -0.236033,0.151735 -0.421487,0.387768 -0.168595,0.236033 -0.269752,0.505785 -0.101157,0.269752 -0.134876,0.556364 -0.03372,0.286611 -0.03372,0.573223 v 0.421487 z"
         id="path17942" />
      <path
         d="m 57.028606,25.906229 v -8.76694 h 1.315042 v 1.820826 q 0.101157,-0.370909 0.286611,-0.724959 0.185455,-0.354049 0.455207,-0.640661 0.269752,-0.286611 0.640661,-0.438347 0.370909,-0.151735 0.758677,-0.151735 0.320331,0 0.623802,0.0843 0.32033,0.06744 0.573223,0.252893 0.252892,0.185454 0.421487,0.455206 0.185455,0.252893 0.269752,0.556364 0.101157,0.286611 0.134876,0.606942 0.03372,0.303471 0.03372,0.623801 h -1.315041 q 0,-0.252892 -0.05058,-0.488925 -0.03372,-0.252893 -0.168595,-0.472066 -0.118017,-0.219174 -0.35405,-0.320331 -0.219173,-0.118016 -0.472066,-0.118016 -0.33719,0 -0.65752,0.151735 -0.303471,0.134876 -0.522645,0.387769 -0.202314,0.252892 -0.33719,0.573223 -0.118016,0.303471 -0.202314,0.640661 -0.06744,0.32033 -0.101157,0.65752 -0.01686,0.33719 -0.01686,0.657521 v 4.653222 z"
         id="path17944" />
    </g>
  </g>
</svg>
