<svg width="256" height="128" viewBox="0 0 16.933 8.467" xml:space="preserve" xmlns:xlink="http://www.w3.org/1999/xlink" xmlns="http://www.w3.org/2000/svg"><defs><linearGradient id="f"><stop style="stop-color:#6b8033;stop-opacity:1" offset="0"/><stop style="stop-color:#465128;stop-opacity:1" offset="1"/></linearGradient><linearGradient id="e"><stop style="stop-color:#8ccd31;stop-opacity:1" offset="0"/><stop style="stop-color:#95ff00;stop-opacity:1" offset="1"/></linearGradient><linearGradient id="d"><stop style="stop-color:#2566ea;stop-opacity:1" offset="0"/><stop style="stop-color:#2989ee;stop-opacity:1" offset="1"/></linearGradient><linearGradient id="c"><stop style="stop-color:#32baf3;stop-opacity:1" offset="0"/><stop style="stop-color:#2988ee;stop-opacity:1" offset="1"/></linearGradient><linearGradient id="b"><stop style="stop-color:#ffd55d;stop-opacity:1" offset="0"/><stop style="stop-color:#ec6000;stop-opacity:1" offset="1"/></linearGradient><linearGradient id="a"><stop style="stop-color:#fdb908;stop-opacity:1" offset="0"/><stop style="stop-color:#e22700;stop-opacity:1" offset="1"/></linearGradient><linearGradient xlink:href="#a" id="g" x1=".529" y1="8.047" x2="1.588" y2="1.609" gradientUnits="userSpaceOnUse" gradientTransform="matrix(1 0 .1644 .9864 -.132 -.53)"/><linearGradient xlink:href="#b" id="i" x1="7.541" y1="8.599" x2="4.895" y2="1.72" gradientUnits="userSpaceOnUse" gradientTransform="matrix(1 0 -.38462 .92308 -.132 -.53)"/><linearGradient xlink:href="#c" id="j" x1="10.407" y1="9.12" x2="9.349" y2="15.558" gradientUnits="userSpaceOnUse" gradientTransform="matrix(1 0 .1644 .9864 .132 -7.938)"/><linearGradient xlink:href="#d" id="h" x1="17.242" y1="9.745" x2="19.888" y2="16.625" gradientUnits="userSpaceOnUse" gradientTransform="matrix(1 0 -.38462 .92308 .132 -7.938)"/><linearGradient xlink:href="#e" id="l" x1="13.234" y1="8.306" x2="13.892" y2="10.024" gradientUnits="userSpaceOnUse" gradientTransform="matrix(1 0 -.45747 1.10967 .535 -5.937)"/><linearGradient xlink:href="#f" id="k" x1="14.156" y1="10.024" x2="13.498" y2="8.306" gradientUnits="userSpaceOnUse" gradientTransform="matrix(1 0 -.4574 1.10859 .535 -5.927)"/></defs><path style="fill:url(#g);fill-opacity:1;stroke:none;stroke-width:.529167;stroke-linecap:square" d="m1.19 1.058 1.059 6.35h1.587L5.35 3.78l.604 3.628h1.588l2.645-6.35H8.6l-1.512 3.63-.605-3.63H4.895l-1.512 3.63-.605-3.63z"/><path style="fill:url(#h);fill-opacity:1;stroke:none;stroke-width:.529167;stroke-linecap:square" d="m13.097 1.058-2.646 6.35h1.588L13.55 3.78l.604 3.628h1.588l-1.059-6.35z"/><path style="fill:url(#i);fill-opacity:1;stroke:none;stroke-width:.529167;stroke-linecap:square" d="m4.63 1.058-2.646 6.35h1.588l2.646-6.35zm3.704 0L5.69 7.408h1.587l2.646-6.35z"/><path style="fill:url(#j);fill-opacity:1;stroke:none;stroke-width:.498904;stroke-linecap:square" d="m12.832 1.058-2.646 6.35h1.588l.33-.793h1.919l-.265-1.588h-.992l1.654-3.969z"/><path style="fill:url(#k);stroke-width:.625661;stroke-linecap:square" d="M9.704 3.44h1.642l-.655 1.587H9.049z"/><path style="fill:url(#l);stroke-width:.625966;stroke-linecap:square" d="M9.703 3.44h1.378l-.655 1.587H9.05z"/></svg>
